<svg xmlns="http://www.w3.org/2000/svg" width="420.934" height="484.789" viewBox="0 0 155.65 179.26" shape-rendering="geometricPrecision" text-rendering="geometricPrecision" image-rendering="optimizeQuality" fill-rule="evenodd" clip-rule="evenodd">
  <defs/>
  <g id="Capa_x0020_1">
    <g id="_2424253266400">
      <path d="M131.54 56.89c1.64.58 3.28 1.15 4.92 1.69 2.02.67 4.03 1.34 6.02 2.11 1.8.7 3.66 1.25 5.5 1.84 1.92.62 3.52 1.14 5.02 2.6 1.97 1.9 2.63 4.37 2.63 7.03 0 13.48.35 25.19-3.39 38.34-1.16 4.07-2.6 7.93-4.5 11.71-1.71 3.41-3.66 6.83-5.94 9.88a91.726 91.726 0 01-10.3 11.6c2.2 1.23 3.79 3.45 3.79 6.47 0 6.53 1.22 15.2-2.64 20.86-1.17 1.72-2.49 3.03-4.12 4.3-3.58 2.81-8.23 3.92-12.72 3.92H19.68c-6.6 0-11.11-1.94-15.6-6.71-5.04-5.36-3.87-10.62-3.87-17.2V133.3c-.11-1.86-.31-4.03-.2-5.88.08-1.33.17-2.62.21-3.97l-.01-23.43c-.11-1.86-.31-4.03-.2-5.88.08-1.33.17-2.62.21-3.97L.21 66.74c-.11-1.86-.31-4.03-.2-5.88.08-1.33.17-2.62.21-3.97L.21 34.05c0-1.78-.18-3.5-.08-5.29.23-4.06 1.73-7.35 4.55-10.29 4.43-4.62 8.82-5.77 15.03-5.75 8.73.03 17.47.01 26.2 0 1.82-3.01 4.5-5.84 6.96-7.67 7.44-5.57 16.5-6.67 24.97-2.81 4.54 2.07 9.23 5.87 11.87 10.48h15.38c6.11 0 15.06-.84 20.53 1.91 3.74 1.88 6.76 4.5 8.33 8.46 1.21 3.06 1.28 6.19 1.32 9.42.02 1.44.37 2.84.4 4.38.03 1.86-.16 3.43-.37 5.25-.31 2.79-.02 6.07-.02 8.91v3.09l-2.53 1.7c-.42.41-.82.74-1.23 1.01z" fill="#ffa70a"/>
      <path class="fil1" d="M35.6 37.78c0-16.13-2.04-14.56 13.7-14.4 2.91.03 3.19-.25 4.01-2.28 4.56-11.31 17.54-13.73 25.52-5.47 5.05 5.23 2 7.76 7.03 7.76 15.96-.02 14.08-2.27 14.08 14.39 0 2.31-1.06 4.07-3.33 4.07H38.93c-2.27 0-3.33-1.76-3.33-4.07zm14.05-19.23c-9.98 0-19.97.04-29.95 0-4.57-.02-7.53.53-10.82 3.97-3.85 4.01-2.86 7.53-2.86 11.56l.01 22.94c-.19 6.33-.42 2-.01 9.6l.01 23.68c-.19 6.33-.42 2-.01 9.6l.01 23.68c-.19 6.33-.42 2-.01 9.6v22.19c0 5.56-1.07 9.64 2.3 13.23 3.19 3.39 6.09 4.89 11.38 4.89h96.13c3.77 0 6.97-.98 9.14-2.69 1.16-.91 2.05-1.76 2.9-3.01 2.59-3.8 1.63-11.3 1.63-17.59 0-2-3.39-2.55-4.52-.45-.46.86-.31 2.18-.3 3.4.05 4.63.75 10.45-1.81 12.98-.98.97-3.27 2.18-5.21 2.18H17.83c-3.71 0-7.02-2.86-7.02-6.66V30.03c0-8.83 13.69-6.66 20.33-6.66-.1 1.16-.37 1.31-.37 2.59v13.31c0 4.06 4.16 7.39 6.66 7.39h60.64c2.49 0 6.66-3.33 6.66-7.39V25.96c0-1.27-.27-1.43-.37-2.59 7.18 0 18.7-1.83 20.2 5.31 1.29 6.17-1.99 23.53 1.98 23.53 2.51 0 1.47-.11 2.96-1.11 0-2.8-.24-6.92.05-9.56.16-1.44.37-2.5.33-4.5-.04-2.05-.38-2.36-.4-4.41-.07-5.64-.17-9.62-6.45-12.77-3.96-1.99-13-1.29-17.93-1.29H85.87c-1.77-7.59-16.2-18.8-29.53-8.82-2.35 1.76-5.97 5.66-6.7 8.82z"/>
      <path class="fil1" d="M65.55 87.32V73.64c0-1.21.87-1.14 1.87-1.46l37.69-12.96 37.41 12.87c1.15.4 2.15.3 2.15 1.55 0 20.88.61 36.02-12.09 52.98-3.79 5.06-7.55 8.75-12.42 12.72-2.56 2.09-13.39 9.8-15.29 9.54-2.61-.35-18.6-11.92-21.73-15.92-1.06-1.36-1.96-1.94-3.01-3.28-8.85-11.33-14.57-23.35-14.57-42.36zm-4.81-16.27c0 16.62-1.22 26.46 4.29 42.29 3.63 10.42 11.09 20.46 19.28 27.68l3.87 3.15c2.21 1.81 15.02 10.44 16.55 10.44 1.42 0 3.72-1.44 4.92-2.1 10.98-6.08 19.99-13.83 27.51-23.88 2-2.67 3.84-5.89 5.4-9.02 1.7-3.38 2.98-6.73 4.1-10.69 3.58-12.61 3.17-23.14 3.17-36.76 0-3.09-1.28-3.35-3.65-4.12-1.84-.59-3.85-1.19-5.81-1.95-2-.77-3.84-1.38-5.75-2.02-4.46-1.48-27.91-10.03-29.53-10.03-1.13 0-9.51 3.11-11.41 3.74L62.42 68.67c-1.19.57-1.7.76-1.7 2.37z"/>
      <path class="fil1" d="M97.35 93.98c0-12.65 15.53-10.52 15.53-1.48 0 9.49-5.39 5.72-4.12 11.49.55 2.49 2.6 9.92 2.64 11.8H98.83c.26-3.17 2.96-11.13 2.96-13.68 0-2.22-4.44-3.11-4.44-8.13zm-5.18-1.11c0 2.41.87 4.47 1.84 5.92 2.49 3.72 2.92 2.24 2.42 4.94-1.09 5.96-5.98 16.86 1.28 16.86h15.16c2.05 0 3.7-2.13 3.7-4.07 0-2.13-2.06-9.81-2.7-12.5-.91-3.82 4.18-4.54 4.18-10.42 0-14.31-18.49-18.67-24.51-6.03-.45.94-1.37 4.12-1.37 5.29zM22.29 142.41c0 1.8.48 2.96 2.59 2.96H67.4c3.71 0 4.28-5.18-.74-5.18H25.25c-1.35 0-2.96 1.02-2.96 2.22zM67.4 22.25c6.19 0 6.19 8.87 0 8.87-5.1 0-5.1-8.87 0-8.87zm-8.87 3.7c0 6.26 4.47 10.35 8.87 10.35 5.39 0 9.61-4.01 9.61-10.35 0-4.65-4.69-8.78-9.24-8.78-4.5 0-9.24 4.22-9.24 8.78zM22.29 128.36c0 1.73.86 2.59 2.59 2.59h35.49c3.86 0 2.94-4.81.74-4.81H24.14c-1.05 0-1.85 1.28-1.85 2.22zM22.29 84.74c0 1.73.19 3.33 3.7 3.33h23.66c3.79 0 4.08-5.18.37-5.18H24.88c-1.25 0-2.59.65-2.59 1.85zM22.29 71.06c0 1.77 1.25 2.59 2.96 2.59h24.4c4 0 4-5.18 0-5.18h-24.4c-1.71 0-2.96.82-2.96 2.59zM22.29 113.57c0 1.22.15 2.96 1.85 2.96h26.62c2.5 0 2.5-4.81 0-4.81H24.14c-.86 0-1.85.99-1.85 1.85zM22.29 99.15c0 1.22.15 2.96 1.85 2.96h26.62c2.2 0 3.12-4.81-.74-4.81H24.88c-1.25 0-2.59.65-2.59 1.85z"/>
    </g>
  </g>
</svg>
